<?xml version="1.0" encoding="UTF-8" standalone="no"?>
<!-- Created with Inkscape (http://www.inkscape.org/) -->

<svg
   xmlns:dc="http://purl.org/dc/elements/1.1/"
   xmlns:cc="http://creativecommons.org/ns#"
   xmlns:rdf="http://www.w3.org/1999/02/22-rdf-syntax-ns#"
   xmlns:svg="http://www.w3.org/2000/svg"
   xmlns="http://www.w3.org/2000/svg"
   xmlns:xlink="http://www.w3.org/1999/xlink"
   version="1.1"
   width="640"
   height="480"
   id="svg4729">
  <defs
     id="defs3">
    <filter
       color-interpolation-filters="sRGB"
       id="filter16558">
      <feGaussianBlur
         id="feGaussianBlur16560"
         stdDeviation="0.80484375" />
    </filter>
    <filter
       color-interpolation-filters="sRGB"
       id="filter13597">
      <feGaussianBlur
         id="feGaussianBlur13599"
         stdDeviation="1.4711815" />
    </filter>
    <radialGradient
       cx="221.89999"
       cy="355.29001"
       r="19.872999"
       id="radialGradient10240"
       xlink:href="#linearGradient4253"
       gradientUnits="userSpaceOnUse"
       gradientTransform="matrix(1.4399,0.055563,-0.042986,0.71688,-83.403,84.978)" />
    <radialGradient
       cx="498.82999"
       cy="357.88"
       r="19.872999"
       id="radialGradient10236"
       xlink:href="#linearGradient4253"
       gradientUnits="userSpaceOnUse"
       gradientTransform="matrix(-1.5761,-0.11017,-0.12157,-0.78907,1063.8,689.89)" />
    <radialGradient
       cx="190.14"
       cy="332.07999"
       r="19.872999"
       id="radialGradient9263"
       xlink:href="#linearGradient6258"
       gradientUnits="userSpaceOnUse"
       gradientTransform="matrix(2.2355,0.4159,-0.11305,0.60766,-160.03,71.259)" />
    <radialGradient
       cx="221.23"
       cy="359.26001"
       r="19.872999"
       id="radialGradient9255"
       xlink:href="#linearGradient6258"
       gradientUnits="userSpaceOnUse"
       gradientTransform="matrix(1.9156,-1.0437,1.1044,1.3043,-603.94,114.51)" />
    <radialGradient
       cx="277.88"
       cy="376.63"
       r="19.872999"
       id="radialGradient9247"
       xlink:href="#linearGradient6258"
       gradientUnits="userSpaceOnUse"
       gradientTransform="matrix(-1.7777,0.17655,-0.18118,-1.1739,796.65,747.52)" />
    <radialGradient
       cx="277.94"
       cy="395.20999"
       r="7.9274998"
       id="radialGradient9213"
       gradientUnits="userSpaceOnUse"
       gradientTransform="matrix(1.1116,-2.3848,0.6486,0.30234,-522.66,601.31)">
      <stop
         id="stop9209"
         style="stop-color:#000000;stop-opacity:0"
         offset="0" />
      <stop
         id="stop9211"
         style="stop-color:#000000;stop-opacity:1"
         offset="1" />
    </radialGradient>
    <filter
       color-interpolation-filters="sRGB"
       id="filter9203">
      <feGaussianBlur
         id="feGaussianBlur9205"
         stdDeviation="0.51616105" />
    </filter>
    <radialGradient
       cx="264.28"
       cy="388.31"
       r="14.625"
       id="radialGradient6264"
       xlink:href="#linearGradient6258"
       gradientUnits="userSpaceOnUse"
       gradientTransform="matrix(0.70309,0.050608,-0.40326,2.5426,239,-622.08)" />
    <radialGradient
       cx="284.92999"
       cy="358.60999"
       r="10.063"
       id="radialGradient5239"
       gradientUnits="userSpaceOnUse"
       gradientTransform="matrix(1.787,0.5069,-0.17677,0.65533,-396.85,-360.12)">
      <stop
         id="stop14572"
         style="stop-color:#d7d7a5;stop-opacity:1"
         offset="0" />
      <stop
         id="stop14574"
         style="stop-color:#7eac53;stop-opacity:1"
         offset="0.5" />
      <stop
         id="stop14576"
         style="stop-color:#302a00;stop-opacity:1"
         offset="1" />
    </radialGradient>
    <radialGradient
       cx="276.14001"
       cy="377.28"
       r="17.944"
       id="radialGradient4259"
       xlink:href="#linearGradient4253"
       gradientUnits="userSpaceOnUse"
       gradientTransform="matrix(0.78203,1.351,-1.2577,0.72799,298.16,-612.03)" />
    <filter
       color-interpolation-filters="sRGB"
       id="filter4231">
      <feGaussianBlur
         id="feGaussianBlur4233"
         stdDeviation="0.41373736" />
    </filter>
    <linearGradient
       id="linearGradient4253">
      <stop
         id="stop4255"
         style="stop-color:#d7d7a5;stop-opacity:1"
         offset="0" />
      <stop
         id="stop4263"
         style="stop-color:#a6ac53;stop-opacity:1"
         offset="0.5" />
      <stop
         id="stop15547"
         style="stop-color:#4d6b29;stop-opacity:1"
         offset="0.75" />
      <stop
         id="stop4257"
         style="stop-color:#302a00;stop-opacity:1"
         offset="1" />
    </linearGradient>
    <linearGradient
       id="linearGradient6258">
      <stop
         id="stop6260"
         style="stop-color:#7f8767;stop-opacity:1"
         offset="0" />
      <stop
         id="stop7251"
         style="stop-color:#322e00;stop-opacity:1"
         offset="0.5" />
      <stop
         id="stop6262"
         style="stop-color:#000000;stop-opacity:1"
         offset="1" />
    </linearGradient>
    <radialGradient
       cx="190.14"
       cy="332.07999"
       r="19.872999"
       id="radialGradient5646"
       xlink:href="#linearGradient6258"
       gradientUnits="userSpaceOnUse"
       gradientTransform="matrix(2.2355,0.4159,-0.11305,0.60766,-160.03,71.259)" />
    <radialGradient
       cx="264.28"
       cy="388.31"
       r="14.625"
       id="radialGradient5648"
       xlink:href="#linearGradient6258"
       gradientUnits="userSpaceOnUse"
       gradientTransform="matrix(0.70309,0.050608,-0.40326,2.5426,239,-622.08)" />
    <radialGradient
       cx="284.92999"
       cy="358.60999"
       r="10.063"
       id="radialGradient5650"
       xlink:href="#radialGradient5239"
       gradientUnits="userSpaceOnUse"
       gradientTransform="matrix(1.787,0.5069,-0.17677,0.65533,-396.85,-360.12)" />
    <radialGradient
       cx="277.94"
       cy="395.20999"
       r="7.9274998"
       id="radialGradient5652"
       xlink:href="#radialGradient9213"
       gradientUnits="userSpaceOnUse"
       gradientTransform="matrix(1.1116,-2.3848,0.6486,0.30234,-522.66,601.31)" />
    <radialGradient
       cx="276.14001"
       cy="377.28"
       r="17.944"
       id="radialGradient5654"
       xlink:href="#linearGradient4253"
       gradientUnits="userSpaceOnUse"
       gradientTransform="matrix(0.78203,1.351,-1.2577,0.72799,298.16,-612.03)" />
    <radialGradient
       cx="277.88"
       cy="376.63"
       r="19.872999"
       id="radialGradient5656"
       xlink:href="#linearGradient6258"
       gradientUnits="userSpaceOnUse"
       gradientTransform="matrix(-1.7777,0.17655,-0.18118,-1.1739,796.65,747.52)" />
    <radialGradient
       cx="498.82999"
       cy="357.88"
       r="19.872999"
       id="radialGradient5658"
       xlink:href="#linearGradient4253"
       gradientUnits="userSpaceOnUse"
       gradientTransform="matrix(-1.5761,-0.11017,-0.12157,-0.78907,1063.8,689.89)" />
    <radialGradient
       cx="221.23"
       cy="359.26001"
       r="19.872999"
       id="radialGradient5660"
       xlink:href="#linearGradient6258"
       gradientUnits="userSpaceOnUse"
       gradientTransform="matrix(1.9156,-1.0437,1.1044,1.3043,-603.94,114.51)" />
    <radialGradient
       cx="221.89999"
       cy="355.29001"
       r="19.872999"
       id="radialGradient5662"
       xlink:href="#linearGradient4253"
       gradientUnits="userSpaceOnUse"
       gradientTransform="matrix(1.4399,0.055563,-0.042986,0.71688,-83.403,84.978)" />
    <linearGradient
       x1="18.504999"
       y1="17.421"
       x2="47.844002"
       y2="46.762001"
       id="linearGradient1487"
       gradientUnits="userSpaceOnUse"
       gradientTransform="matrix(0.88932,0,0,0.88932,3.5416,3.5416)">
      <stop
         id="stop1380"
         style="stop-color:#ff8b8e;stop-opacity:1"
         offset="0" />
      <stop
         id="stop1382"
         style="stop-color:#b42314;stop-opacity:0.72241002"
         offset="1" />
    </linearGradient>
    <linearGradient
       x1="18.504999"
       y1="17.421"
       x2="47.844002"
       y2="46.762001"
       id="linearGradient1485"
       gradientUnits="userSpaceOnUse"
       gradientTransform="matrix(0.88932,0,0,0.88932,-32.549,2.4514)">
      <stop
         id="stop1367"
         style="stop-color:#f1140c;stop-opacity:1"
         offset="0" />
      <stop
         id="stop1370"
         style="stop-color:#8d1a02;stop-opacity:1"
         offset="1" />
    </linearGradient>
    <linearGradient
       x1="20.153"
       y1="13.746"
       x2="40.305"
       y2="48.977001"
       id="linearGradient1483"
       gradientUnits="userSpaceOnUse"
       gradientTransform="matrix(0.88932,0,0,0.88932,3.5416,3.5416)">
      <stop
         id="stop1354"
         style="stop-color:#982007;stop-opacity:1"
         offset="0" />
      <stop
         id="stop1356"
         style="stop-color:#510f02;stop-opacity:1"
         offset="1" />
    </linearGradient>
  </defs>
  <metadata
     id="metadata4">
    <rdf:RDF>
      <cc:Work
         rdf:about="">
        <dc:format>image/svg+xml</dc:format>
        <dc:type
           rdf:resource="http://purl.org/dc/dcmitype/StillImage" />
        <dc:title></dc:title>
      </cc:Work>
    </rdf:RDF>
  </metadata>
  <g
     transform="translate(0,-572.36218)"
     id="layer1">
    <g
       transform="matrix(4.5103535,0,0,4.5103535,6.7062784,649.41776)"
       id="layer1-7">
      <desc
         id="desc5644">https://openclipart.org/detail/2817/bug-buddy-vector-by-valessiobrito-2817</desc>
      <g
         id="g16562">
        <path
           d="m 40.041,13.31 c 0.076,3.249 0.558,5.471 1,6.719 -1.176,4.554 -3.606,7.993 -1.812,12.625 -2.207,1.722 -4.116,3.994 -5.719,6.5 -0.008,0.012 -0.024,0.019 -0.031,0.031 -0.19,0.147 -0.326,0.329 -0.375,0.562 -0.256,0.421 -0.484,0.848 -0.719,1.282 -0.007,0.012 -0.024,0.018 -0.031,0.031 -3.131,2.427 -5.296,2.452 -6.813,4.406 -3.685,1.659 -5.262,5.893 -8.071,7.153 -1.31,0.86 0.606,2.503 1.625,1.5 2.387,-0.915 4.992,-5.749 7.102,-7.965 1.522,-0.644 3.106,-1.237 4.625,-1.875 -0.105,0.262 -0.215,0.517 -0.312,0.781 -0.445,1.204 -0.83,2.408 -1.156,3.562 -0.064,0.226 -0.129,0.432 -0.188,0.657 -0.86,0.085 -1.542,1.02 -2.281,1.437 -1.888,3.884 -5.866,6.36 -6.375,8.656 -2.819,1.979 -4.819,5.038 -5.844,9.532 0.695,0.91 1.715,-0.128 1.844,-0.938 0.897,-2.297 3.22,-4.615 4.375,-7.562 1.857,-1.601 5.124,-4.992 7.656,-8.282 -1.182,6.611 -0.12,12.498 3.688,18.313 0.315,-1.036 0.65,-2.041 1,-3.063 0.065,-0.191 0.152,-0.372 0.218,-0.562 1.918,2.795 4.687,4.469 8.063,4.469 1.839,0 3.698,-0.505 5.5,-1.407 -0.296,1.261 -0.591,2.536 -0.906,3.782 0.538,-0.28 1.066,-0.576 1.593,-0.875 4.006,-2.273 7.649,-5.116 10.469,-8.594 -0.225,3.67 -1.801,7.023 -1.187,8.969 -1.452,3.123 -1.672,6.783 -0.313,11.187 1.058,0.441 1.418,-0.953 1.125,-1.719 -0.372,-2.437 0.505,-5.62 0.031,-8.75 0.952,-2.725 2.357,-8.56 2.719,-13.125 1.282,-2.214 2.235,-4.65 2.781,-7.312 1.558,2.841 2.503,4.931 3.782,6.469 0.641,2.966 1.046,4.333 1.531,6.593 0.446,1.125 2.117,0.243 1.5,-0.718 -0.286,-1.88 -0.955,-4.13 -2.344,-6.157 -0.518,-2.721 -2.26,-6.344 -3.625,-8.468 -0.16,-0.003 -0.309,-0.024 -0.469,-0.032 0.456,-3.693 0.358,-7.28 -0.5,-10.468 0.156,-0.089 0.301,-0.194 0.407,-0.313 2.119,-1.344 4.19,-3.72 3.75,-6.406 1.432,-2.014 3.03,-6.015 6.125,-9.625 0.233,-0.535 -0.278,-1.14 -0.844,-1.031 -2.895,4.672 -5.477,6.734 -7.656,11.437 -0.669,1.397 -1.652,2.631 -2.469,3.938 -0.037,-0.093 -0.055,-0.19 -0.094,-0.282 -0.057,-0.137 -0.127,-0.271 -0.187,-0.406 -0.997,-2.215 -2.431,-4.165 -4.438,-5.687 2.06,1.541 3.67,3.51 4.438,5.687 0.004,-0.744 -0.103,-1.51 -0.313,-2.312 -0.571,-2.189 -1.866,-4.186 -3.594,-5.782 1.941,0.597 3.783,0.243 4.344,-0.968 0.491,-1.059 -0.134,-2.467 -1.437,-3.532 -0.27,-0.616 -1.007,-1.223 -2.063,-1.562 -1.386,-0.445 -2.833,-0.289 -3.5,0.312 -0.022,0.01 -0.041,0.022 -0.062,0.032 -0.568,-0.221 -1.182,-0.405 -1.844,-0.532 -0.231,-0.044 -0.461,-0.064 -0.688,-0.093 -0.488,-0.949 -1.777,-1.635 -3.375,-1.782 -0.49,-0.213 -1.09,-0.349 -1.75,-0.312 -1.286,0.071 -2.317,0.711 -2.593,1.469 -0.646,0.524 -1.038,1.15 -1,1.843 0.051,0.934 0.84,1.712 2,2.157 -1.747,0.716 -3.032,2.009 -3.719,3.656 -0.626,0.3 -1.246,0.619 -1.844,1 -0.869,-4.059 1.452,-8.084 1.281,-11.656 0.705,-1.931 -0.122,-3.451 -1.093,-5.813 -0.11,-0.443 -0.393,-0.876 -0.938,-0.781 z m 7.469,15.75 c 0.041,-0.003 0.084,0.002 0.125,0 -0.252,0.056 -0.499,0.115 -0.75,0.187 -0.134,0.019 -0.273,0.04 -0.406,0.063 -0.286,0.049 -0.562,0.089 -0.844,0.156 -0.951,0.227 -1.88,0.585 -2.781,1 1.259,-0.783 2.837,-1.287 4.656,-1.406 z"
           transform="matrix(1.1708,0,0,1.1708,-7.2984,-12.061)"
           id="path11588"
           style="fill-rule:evenodd;filter:url(#filter13597)" />
        <g
           transform="matrix(1.1708,0,0,1.1708,-283.7,-403.5)"
           id="g11520"
           style="fill:#333333;fill-rule:evenodd">
          <path
             d="m 266.91,372.39 c -2.61,0.1 -5.34,1.66 -6.32,4.15 -2.06,0.1 -4.04,1.24 -4.8,3.22 -2.16,0.23 -2.11,2.9 -1.79,4.49 0.12,1.19 0.55,2.69 -0.45,3.53 -0.33,1.15 1.32,1.41 1.77,0.46 1.79,-1.89 0.54,-4.69 1.15,-6.9 1.23,-1.43 3,-2.06 4.59,-2.98 2.56,-2.12 5.69,-4.06 9.13,-3.4 1.17,-0.03 0.88,-1.73 -0.15,-1.75 -0.92,-0.6 -2.03,-0.87 -3.13,-0.82 z"
             id="path6958" />
          <path
             d="m 275.89,348.13 c -1.15,0.28 -0.1,1.68 -0.92,2.31 -1.03,1.28 -3.32,2.57 -2.37,4.51 0.45,1.88 1.41,3.75 2.66,5.21 -2.03,2.38 -1.19,6.05 0.33,8.45 0.99,0.69 1.59,-0.82 1.23,-1.6 -0.16,-2.43 0.07,-4.89 0.2,-7.28 -0.12,-2.02 -1.47,-3.71 -2.76,-5.09 0.7,-1.93 3.56,-3.36 2.58,-5.72 -0.11,-0.44 -0.4,-0.89 -0.95,-0.79 z"
             id="path6956" />
          <path
             d="m 264.87,384.29 c -2.18,1.98 -3.94,4.44 -6.29,6.27 -2.35,1.72 -2.83,4.97 -2.79,7.63 -2,1.39 -3.73,3.22 -5.38,4.97 -0.33,1.05 1.21,1.46 1.68,0.56 2.51,-1.85 5.43,-3.71 6.36,-6.92 0.57,-1.34 0.59,-3.08 0.9,-4.32 3.19,-0.26 5.31,-3.39 6.24,-6.19 0.37,-0.78 0.69,-2.22 -0.72,-2 z"
             id="path11500" />
          <path
             d="m 295.63,394.76 c -1,0.35 -1.11,1.72 -1.61,2.56 -0.87,2.43 -1.19,5.69 0.74,7.68 -2.62,2.76 -4.12,6.71 -3.12,10.5 0.48,1.16 -0.07,2.8 0.89,3.68 1.06,0.44 1.42,-0.96 1.13,-1.73 -0.03,-2.02 -0.11,-4.2 -0.35,-6.12 2.26,-1.98 3.89,-5.02 3.18,-8.07 -0.31,-2.68 0.17,-5.43 -0.05,-8.08 -0.16,-0.28 -0.49,-0.45 -0.81,-0.42 z"
             id="path11502" />
          <path
             d="m 308.5,358.11 c -1.85,0.68 -1.89,3.01 -1.48,4.64 0.07,0.81 0.51,2.3 -0.81,2.17 -2.44,0.52 -4.56,2.25 -5.35,4.64 -0.92,1.92 -2.44,3.53 -3.29,5.45 0.1,1.1 1.39,0.74 1.91,0.17 2.12,-1.35 4.2,-3.74 3.75,-6.42 2.27,-0.61 4.29,-2.03 5.82,-3.74 0.98,-1.87 -1.44,-4.29 0.3,-5.87 0.23,-0.54 -0.28,-1.15 -0.85,-1.04 z"
             id="path11504" />
          <path
             d="m 298.26,385.95 c -1,0.3 -0.47,1.62 0.48,1.51 2.77,0.76 4.53,3.18 5.83,5.59 0.87,0.93 2.05,2 2.18,3.28 -0.94,1.47 -3.26,2.99 -2.24,5 0.44,1.12 2.11,0.23 1.49,-0.73 0.78,-1.55 3.25,-2.41 2.97,-4.42 -0.28,-0.68 -1.08,-0.9 -0.82,-1.76 -0.02,-1.5 -1.64,-2.26 -2.5,-3.03 0.19,-2.98 -2.91,-5.12 -5.61,-5.41 -0.59,-0.01 -1.19,-0.08 -1.78,-0.03 z"
             id="path11506" />
        </g>
        <g
           transform="matrix(0.4549,0,0,0.4549,24.053,25.058)"
           id="g15581"
           style="fill:#808080;fill-rule:evenodd;filter:url(#filter16558)">
          <path
             d="m 11.062,18.938 c -6.8613,-0.052 -12.39,4.92 -15.593,10.5 -5.1572,-0.026 -9.518,3.341 -11.77,7.669 -5.536,1.173 -4.09,8.043 -3.387,12.174 1.125,2.192 -0.776,6.574 -0.812,7.344 5.937,-5.88 -1.856,-17.169 6.969,-21.437 9.8763,-4.489 17.882,-14.353 29.625,-14.032 1.913,0.22 4.775,0.377 1.281,-0.718 -1.858,-1.119 -4.12,-1.574 -6.313,-1.5 z"
             id="path15551" />
          <path
             d="m 34.375,-41.406 c 0.306,5.907 -10.218,7.927 -6.75,14.281 0.993,5.068 4.491,8.789 6.563,13.219 -4.639,5.3168 -3.343,14.441 0.187,19.062 -1.37,-7.732 1.324,-16.014 -0.344,-23.562 -0.961,-5.003 -9.42,-8.733 -4.469,-13.75 1.933,-2.995 6.472,-5.985 4.782,-10.063 l 0.031,0.813 z"
             id="path15553" />
          <path
             d="m 6.0938,49.688 c -5.7339,6.352 -11.922,12.21 -18.032,18.093 -3.719,4.725 -2.583,11.202 -4.281,16.5 -4.503,3.172 -9.709,8.163 -12.437,11.657 7.554,-5.695 16.83,-12.237 17.468,-22.719 -0.08,-3.952 1.2936,-7.842 5.7818,-7.781 6.459,-2.706 10.094,-9.652 11.75,-16 l -0.25,0.25 z"
             id="path15555" />
          <path
             d="m 84.156,76.219 c -4.074,6.978 -5.931,17.169 -0.25,23.901 -6.484,7.62 -11.153,18.11 -7.5,28.22 0.296,1.92 -0.078,4.04 0.75,5.82 0.476,-6.4 -1.373,-13.22 -0.344,-19.47 6.393,-5.16 9.335,-13.69 7.282,-21.596 -0.335,-5.588 0.575,-11.475 0.062,-16.875 z"
             id="path15557" />
          <path
             d="m 116.53,-16.969 c -5.28,4.401 2.61,13.143 -3.62,16.688 -7.7,0.44124 -12.73,7.0571 -15.222,13.719 -1.828,3.261 -5.013,6.888 -6.063,9.812 6.049,-3.432 10.895,-9.656 10.345,-16.875 5.4,-2.3179 12.3,-4.867 14.94,-10.531 -0.1,-4.1306 -3.06,-9.155 -0.38,-12.813 z"
             id="path15559" />
          <path
             d="m 93.25,53.594 c 9.87,2.97 13.68,13.397 19.94,20.468 5.07,6.154 -7.74,10.109 -4.44,15.876 -1.06,-5.373 8.19,-7.095 7.13,-12.188 -3.15,-2.192 -0.51,-6.879 -4.54,-8.531 -5.17,-2.168 -2.68,-9.068 -7.46,-11.875 -2.87,-2.569 -7.6,-4.12 -10.63,-3.75 z"
             id="path15561" />
        </g>
        <path
           d="m 244.29,356.82 a 19.873,9.9363 0 1 1 -39.74,0 19.873,9.9363 0 1 1 39.74,0 z"
           transform="matrix(0.32323,0.062009,-0.062009,0.32323,4.3564,-109.87)"
           id="path9235"
           style="fill:url(#radialGradient5646)" />
        <path
           d="m 285,378.61 a 14.625,20 0 1 1 -29.25,0 14.625,20 0 1 1 29.25,0 z"
           transform="matrix(1.1708,0,-0.2488,1.244,-176.33,-423.89)"
           id="path6248"
           style="fill:url(#radialGradient5648)" />
        <path
           d="m 50.649,19.313 c -4.059,0 -7.076,2.03 -8.313,5.085 1.736,-1.173 4.042,-1.866 6.743,-1.866 7.036,0 14.179,4.64 16.234,10.465 0.005,-0.871 -0.112,-1.768 -0.357,-2.708 C 63.376,24.23 56.97,19.313 50.649,19.313 z"
           id="path4265"
           style="fill:url(#radialGradient5650)" />
        <path
           d="M 32.021,70.955 C 36.03,57.768 42.953,45.765 51.212,34.279 51.63,46.078 49.3,60.649 45.881,74.154 54.495,69.676 61.856,62.741 63.367,52.617 64.846,42.701 62.442,33.326 52.492,30.227 42.736,27.188 33.9,35.879 30.315,45.58 c -3.56,9.634 -3.404,17.572 1.706,25.375 z"
           transform="matrix(1.1708,0,0,1.1708,-7.2984,-12.061)"
           id="path2169"
           style="fill-rule:evenodd;filter:url(#filter4231)" />
        <path
           d="m 36.077,66.096 c 1.377,-0.291 1.637,1.27 3.515,2.197 2.364,1.166 5.386,0.214 5.491,-0.879 0.165,-1.702 -11.289,-6.391 -9.752,-8.313 1.302,-1.627 10.631,6.336 10.631,6.336 0,0 1.098,-0.879 1.098,-3.734 0,-2.856 -10.381,-5.905 -10.161,-7.168 0.603,-3.469 10.381,5.411 10.381,5.411 0,0 1.318,-4.393 0.659,-5.711 -0.659,-1.318 -8.702,-2.444 -7.494,-4.366 1.259,-2.002 8.372,3.487 8.372,3.487 0,0 1.977,-3.295 0.22,-4.832 -1.757,-1.538 -5.003,-3.552 -5.003,-3.552 0.872,-1.216 5.414,2.102 6.541,3.112 L 47.5,69.391 c 0,0 -5.053,2.196 -7.469,1.757 -2.416,-0.439 -5.711,-2.416 -5.271,-3.295 0.439,-0.878 0.219,-1.812 1.317,-1.757 z"
           transform="matrix(1.1708,0,0,1.1708,-7.2984,-12.061)"
           id="path8224"
           style="fill:url(#radialGradient5652);fill-rule:evenodd;filter:url(#filter9203)" />
        <path
           d="M 30.192,71.014 C 33.137,61.33 37.423,52.19 42.596,43.404 45.67,38.182 51.438,27.892 52.662,28.072 53.638,28.308 52.455,41.095 51.558,48.18 50.452,56.916 48.63,66.028 46.42,74.759 56.506,69.516 65.124,61.397 66.892,49.543 68.624,37.934 65.809,26.958 54.16,23.329 42.738,19.771 32.392,29.946 28.195,41.305 24.027,52.584 24.21,61.878 30.192,71.014 z"
           id="path4235"
           style="fill:url(#radialGradient5654);fill-rule:evenodd" />
        <path
           d="m 244.29,356.82 a 19.873,9.9363 0 1 1 -39.74,0 19.873,9.9363 0 1 1 39.74,0 z"
           transform="matrix(-0.23954,-0.11102,-0.1384,0.29861,164.2,-61.48)"
           id="path9239"
           style="fill:url(#radialGradient5656)" />
        <path
           d="m 244.29,356.82 a 19.873,9.9363 0 1 1 -39.74,0 19.873,9.9363 0 1 1 39.74,0 z"
           transform="matrix(-0.17172,-0.055148,-0.098497,0.18445,134.43,-35.187)"
           id="path10234"
           style="fill:url(#radialGradient5658)" />
        <path
           d="m 244.29,356.82 a 19.873,9.9363 0 1 1 -39.74,0 19.873,9.9363 0 1 1 39.74,0 z"
           transform="matrix(0.26362,-0.014494,0.018068,0.32862,-15.988,-96.781)"
           id="path9237"
           style="fill:url(#radialGradient5660)" />
        <path
           d="m 244.29,356.82 a 19.873,9.9363 0 1 1 -39.74,0 19.873,9.9363 0 1 1 39.74,0 z"
           transform="matrix(0.16385,-0.0090085,0.01123,0.20425,7.9247,-55.188)"
           id="path10238"
           style="fill:url(#radialGradient5662)" />
      </g>
    </g>
    <g
       transform="matrix(10.459118,0,0,10.459118,237.8059,582.69277)"
       id="layer1-3">
      <desc
         id="desc3083">https://openclipart.org/detail/16982/cross-by-jean_victor_balin</desc>
      <g
         transform="translate(-15,-15)"
         id="g1478">
        <path
           d="m 16.025,21.211 c -0.376,0.454 -0.342,1.12 0.079,1.533 L 25.36,32 16.104,41.256 c -0.215,0.213 -0.336,0.503 -0.336,0.806 0,0.302 0.121,0.592 0.336,0.805 l 5.03,5.031 c 0.213,0.215 0.504,0.336 0.806,0.336 0.303,0 0.593,-0.121 0.806,-0.336 l 9.256,-9.256 9.256,9.256 c 0.213,0.215 0.503,0.336 0.805,0.336 0.303,0 0.593,-0.121 0.806,-0.336 L 47.9,42.867 c 0.215,-0.213 0.336,-0.503 0.336,-0.805 0,-0.303 -0.121,-0.593 -0.336,-0.806 L 38.644,32 47.9,22.744 c 0.215,-0.213 0.336,-0.503 0.336,-0.806 0,-0.302 -0.121,-0.592 -0.336,-0.805 l -5.031,-5.031 c -0.213,-0.215 -0.503,-0.336 -0.806,-0.336 -0.302,0 -0.592,0.121 -0.805,0.336 l -9.256,9.256 -9.256,-9.256 c -0.213,-0.215 -0.503,-0.336 -0.806,-0.336 -0.302,0 -0.593,0.121 -0.806,0.336 l -5.03,5.031 c -0.028,0.025 -0.054,0.051 -0.079,0.078 z"
           id="path1349"
           style="fill:url(#linearGradient1483)" />
        <path
           d="m -14.375,15.844 c -0.18,0.047 -0.342,0.145 -0.469,0.281 l -4.031,4.031 c -0.377,0.381 -0.377,0.995 0,1.375 l 9.375,9.375 -9.375,9.375 c -0.377,0.381 -0.377,0.995 0,1.375 l 4.031,4.032 c 0.381,0.377 0.995,0.377 1.375,0 l 9.3752,-9.376 9.375,9.376 c 0.3808,0.377 0.9943,0.377 1.375,0 l 4.0318,-4.032 c 0.377,-0.38 0.377,-0.994 0,-1.375 L 1.3125,30.906 10.688,21.531 c 0.377,-0.38 0.377,-0.994 0,-1.375 L 6.6562,16.125 c -0.3807,-0.377 -0.9942,-0.377 -1.375,0 l -9.375,9.375 -9.3752,-9.375 c -0.233,-0.244 -0.576,-0.35 -0.906,-0.281 z"
           transform="translate(36.094,1.1033)"
           id="path1468"
           style="fill:url(#linearGradient1485)" />
        <path
           d="m 21.844,17.656 c -0.036,0.014 -0.068,0.035 -0.094,0.063 l -4.031,4.031 c -0.032,0.035 -0.054,0.078 -0.063,0.125 -0.016,0.051 -0.016,0.105 0,0.156 0.014,0.036 0.035,0.068 0.063,0.094 l 9.562,9.563 c 0.088,0.083 0.157,0.198 0.157,0.312 0,0.114 -0.069,0.229 -0.157,0.312 l -9.562,9.563 c -0.032,0.035 -0.054,0.078 -0.063,0.125 -0.016,0.051 -0.016,0.105 0,0.156 0.014,0.036 0.035,0.068 0.063,0.094 l 4.031,4.031 c 0.035,0.032 0.078,0.054 0.125,0.063 0.051,0.016 0.105,0.016 0.156,0 0.036,-0.014 0.068,-0.035 0.094,-0.063 l 9.563,-9.562 c 0.083,-0.088 0.198,-0.157 0.312,-0.157 0.114,0 0.229,0.069 0.312,0.157 l 9.563,9.562 c 0.035,0.032 0.078,0.054 0.125,0.063 0.051,0.016 0.105,0.016 0.156,0 0.036,-0.014 0.068,-0.035 0.094,-0.063 l 4.031,-4.031 c 0.032,-0.035 0.054,-0.078 0.063,-0.125 0.016,-0.051 0.016,-0.105 0,-0.156 -0.014,-0.036 -0.035,-0.068 -0.063,-0.094 L 36.719,32.312 C 36.631,32.229 36.562,32.114 36.562,32 c 0,-0.114 0.069,-0.229 0.157,-0.312 l 9.562,-9.563 c 0.032,-0.035 0.054,-0.078 0.063,-0.125 0.016,-0.051 0.016,-0.105 0,-0.156 C 46.33,21.808 46.309,21.776 46.281,21.75 L 42.25,17.719 c -0.035,-0.032 -0.078,-0.054 -0.125,-0.063 -0.051,-0.016 -0.105,-0.016 -0.156,0 -0.036,0.014 -0.068,0.035 -0.094,0.063 l -9.563,9.562 c -0.083,0.088 -0.198,0.157 -0.312,0.157 -0.114,0 -0.229,-0.069 -0.312,-0.157 L 22.125,17.719 C 22.09,17.687 22.047,17.665 22,17.656 c -0.051,-0.016 -0.105,-0.016 -0.156,0 z"
           id="path1472"
           style="fill:url(#linearGradient1487)" />
      </g>
    </g>
  </g>
</svg>
